<?xml version="1.0" encoding="UTF-8"?>
<svg id="Layer_2" data-name="Layer 2" xmlns="http://www.w3.org/2000/svg" viewBox="0 0 540.78 509.44">
  <defs>
    <style>
      .cls-1 {
        stroke-width: 0px;
      }
    </style>
  </defs>
  <g id="Layer_1-2" data-name="Layer 1">
    <g id="_6RueCZ.tif" data-name="6RueCZ.tif">
      <g>
        <path class="cls-1" d="m450.9,91.37c19.71,3.43,42.82,24.61,46.16,42.37,2.37,12.64-2.51,23.56-10.44,32.66-18.36,21.07-41.72,33.77-69.33,38.34-5.86.97-11.87,1.06-18.17,2.72,8.57,1.93,17.05,4.55,25.72,5.66,37.02,4.75,72.02-3.61,106.09-17.31,2.3-.92,4.6-1.82,7.68-3.04.63,3.26,1.41,6.08,1.68,8.94,1.93,21.07-1.32,40.64-17.46,56-11.33,10.79-25.57,15.16-40.7,17.09-19.02,2.44-37.85.7-56.59-2.8-.79-.15-1.63-.02-3.15-.02,1.82,6.55,3.73,12.8,5.3,19.15,16.09,65.04-3.6,118.33-53.62,161.3-28.32,24.33-61.75,39-97.39,48.73-40.68,11.12-81.76,11.16-122.17-.56-32.67-9.48-64.03-22.46-90.92-44.35-29.66-24.13-51.36-53.29-59.91-91.25-6.71-29.78-3.95-59.01,6.12-87.39,7.32-20.63,16.08-40.8,25-60.81,7.57-16.97,10.09-34.07,6.89-52.46-3.6-20.72,0-41.1,5.53-61.1,6.7-24.26,16.16-47.39,32.96-66.5,6.48-7.37,14.95-13.09,22.93-19,2.62-1.94,6.55-2.09,10.45-3.23-1.16,9.14-2.65,16.81-3.02,24.54-2.18,45.4,8.8,86.37,41.31,119.85.93.96,2.02,1.76,2.92,2.73,3.92,4.26,8.58,5.03,14.33,4.64,19.9-1.35,39.85-2.63,59.78-2.77,13.25-.09,26.52,1.97,39.79,2.68,2.45.13,5.55-.91,7.42-2.51,23.49-20.07,36.55-46.21,43-75.9,4.59-21.13,5.82-42.47,2.1-63.92-.47-2.73-1.2-5.41-2.04-9.1,2.63.56,4.54.73,6.26,1.37,15.33,5.74,26.27,16.79,35.13,30,17.65,26.3,28.24,55.25,31.26,86.83.86,9.06.96,18.18,1.51,29.17,11.52-11.65,22.43-22.22,32.8-33.3,10.36-11.07,19.49-23.12,24.79-37.46Zm-220.97,331.41c25.04,1.29,55.7-6.19,84.96-19.57,10.82-4.95,21.85-10.31,31.1-17.63,14.19-11.22,17.21-27.74,16.51-45.09-1.02-25.23-10.93-47.74-21.32-70.1-1.16-2.51-3.09-4.76-5.04-6.78-3.54-3.67-7.82-5.41-13.08-4.1-6.12,1.53-12.22,3.66-18.44,4.12-25.7,1.9-51.42,3.87-77.17,4.62-18.43.53-36.98-.12-55.37-1.55-22-1.71-43.88-4.87-65.83-7.22-1.85-.2-4.6.32-5.64,1.58-3.9,4.71-7.9,9.54-10.72,14.92-10.26,19.62-17.06,40.46-18.9,62.59-1.15,13.78.17,27.31,8.68,39.1,6.85,9.5,16.37,15.55,26.7,20.4,36.77,17.28,75.72,24.41,123.55,24.7Z"/>
        <path class="cls-1" d="m216.47,0c11.72,8.39,20.88,18.37,28.75,29.3,15.85,22,31.04,44.48,46.52,66.75,3.16,4.54,3.69,8.82.33,13.73-7.67,11.25-14.95,22.76-22.46,34.13-2.25,3.4-5.2,4.15-9.45,3.48-23.93-3.75-47.98-4.64-72.09-1.83-5.94.69-11.86,1.67-17.81,2.05-1.83.12-4.39-.78-5.54-2.13-10.41-12.2-19.85-25.08-25.51-40.28-.49-1.3-.38-3.35.34-4.5,17.21-27.73,33.84-55.9,55.7-80.36,6.5-7.28,14.11-13.57,21.22-20.33Z"/>
        <path class="cls-1" d="m230.21,358.78c.58-12.57,7.17-25.62,16.34-37.55,12.1-15.73,26.97-27.53,45.87-34.65,16.23-6.12,23.7,4.54,24.3,16.46.71,14.07-4.38,26.1-14.04,36.11-17.24,17.87-38,29.31-62.66,33.32-7.33,1.19-9.88-1.63-9.81-13.69Z"/>
        <path class="cls-1" d="m202.37,359.87c-.02,11.45-2.85,13.65-11.59,12.17-25.25-4.26-46.16-16.39-63.12-35.32-9.32-10.4-13.28-22.77-11.54-36.85,1.44-11.61,11-17.95,22.15-13.88,29.34,10.72,49.32,30.66,60.81,59.31,2.18,5.44,2.65,11.58,3.29,14.56Z"/>
      </g>
    </g>
  </g>
</svg>