<svg width="70" height="70" viewBox="0 0 70 70" fill="none" xmlns="http://www.w3.org/2000/svg">
    <path
        d="M56.2042 15.5458C52.325 13.7375 48.125 12.425 43.75 11.6667C43.7116 11.6654 43.6735 11.6726 43.6382 11.6878C43.6029 11.7029 43.5714 11.7255 43.5458 11.7542C43.0208 12.7167 42.4083 13.9708 42 14.9333C37.3596 14.2333 32.6404 14.2333 28 14.9333C27.5917 13.9417 26.9792 12.7167 26.425 11.7542C26.3958 11.6958 26.3083 11.6667 26.2208 11.6667C21.8458 12.425 17.675 13.7375 13.7667 15.5458C13.7375 15.5458 13.7083 15.575 13.6792 15.6042C5.74583 27.475 3.55833 39.025 4.6375 50.4583C4.6375 50.5167 4.66667 50.575 4.725 50.6042C9.975 54.4542 15.0208 56.7875 20.0083 58.3333C20.0958 58.3625 20.1833 58.3333 20.2125 58.275C21.3792 56.6708 22.4292 54.9792 23.3333 53.2C23.3917 53.0833 23.3333 52.9667 23.2167 52.9375C21.5542 52.2958 19.9792 51.5375 18.4333 50.6625C18.3167 50.6042 18.3167 50.4292 18.4042 50.3417C18.725 50.1083 19.0458 49.8458 19.3667 49.6125C19.425 49.5542 19.5125 49.5542 19.5708 49.5833C29.6042 54.1625 40.425 54.1625 50.3417 49.5833C50.4 49.5542 50.4875 49.5542 50.5458 49.6125C50.8667 49.875 51.1875 50.1083 51.5083 50.3708C51.625 50.4583 51.625 50.6333 51.4792 50.6917C49.9625 51.5958 48.3583 52.325 46.6958 52.9667C46.5792 52.9958 46.55 53.1417 46.5792 53.2292C47.5125 55.0083 48.5625 56.7 49.7 58.3042C49.7875 58.3333 49.875 58.3625 49.9625 58.3333C54.9792 56.7875 60.025 54.4542 65.275 50.6042C65.3333 50.575 65.3625 50.5167 65.3625 50.4583C66.6458 37.2458 63.2333 25.7833 56.3208 15.6042C56.2917 15.575 56.2625 15.5458 56.2042 15.5458ZM24.85 43.4875C21.8458 43.4875 19.3375 40.7167 19.3375 37.3042C19.3375 33.8917 21.7875 31.1208 24.85 31.1208C27.9417 31.1208 30.3917 33.9208 30.3625 37.3042C30.3625 40.7167 27.9125 43.4875 24.85 43.4875ZM45.1792 43.4875C42.175 43.4875 39.6667 40.7167 39.6667 37.3042C39.6667 33.8917 42.1167 31.1208 45.1792 31.1208C48.2708 31.1208 50.7208 33.9208 50.6917 37.3042C50.6917 40.7167 48.2708 43.4875 45.1792 43.4875Z"
        fill="#FFFFFF" />
</svg>